<?xml version="1.0" encoding="UTF-8" standalone="no"?>
<!-- Created with Inkscape (http://www.inkscape.org/) -->

<svg
   version="1.1"
   id="svg2"
   width="6666.6665"
   height="6666.6665"
   viewBox="0 0 6666.6665 6666.6665"
   sodipodi:docname="vecteezy_deathly-hallows-a-symbol-from-the-harry-potter-book-a_12782607.eps"
   xmlns:inkscape="http://www.inkscape.org/namespaces/inkscape"
   xmlns:sodipodi="http://sodipodi.sourceforge.net/DTD/sodipodi-0.dtd"
   xmlns="http://www.w3.org/2000/svg"
   xmlns:svg="http://www.w3.org/2000/svg">
  <defs
     id="defs6" />
  <g
     id="g8"
     inkscape:groupmode="layer"
     inkscape:label="ink_ext_XXXXXX"
     transform="matrix(1.3333333,0,0,-1.3333333,0,6666.6667)">
    <g
       id="g10"
       transform="scale(0.1)">
      <path
         d="M 50000,0 H 0 V 50000 H 50000 V 0"
         style="fill:#ffffff;fill-opacity:1;fill-rule:nonzero;stroke:none"
         id="path12" />
      <path
         d="M 5895.31,8209.5 H 44104.7 L 25000,41299.8 Z M 45804.2,7228.3 H 4195.76 L 25000,43262.3 45804.2,7228.3"
         style="fill:#201600;fill-opacity:1;fill-rule:nonzero;stroke:none"
         id="path14" />
      <path
         d="m 25000,30318.1 c -6044.6,0 -10962.3,-4917.7 -10962.3,-10962.3 0,-6044.6 4917.7,-10962.3 10962.3,-10962.3 6044.6,0 10962.3,4917.7 10962.3,10962.3 0,6044.6 -4917.7,10962.3 -10962.3,10962.3 z m 0,-22905.9 c -1612.2,0 -3176.3,315.9 -4649.1,938.8 -707.8,299.4 -1390.5,669.9 -2029,1101.3 -632.3,427.2 -1226.9,917.8 -1767.3,1458.1 -540.3,540.4 -1030.9,1135 -1458.1,1767.3 -431.4,638.5 -801.9,1321.2 -1101.3,2029 -622.9,1472.7 -938.8,3036.9 -938.8,4649.1 0,1612.1 315.9,3176.3 938.8,4649.1 299.4,707.8 669.9,1390.5 1101.3,2029 427.2,632.3 917.8,1226.9 1458.1,1767.3 540.4,540.3 1135,1030.9 1767.3,1458.1 638.5,431.4 1321.2,801.9 2029,1101.3 1472.8,622.9 3036.9,938.8 4649.1,938.8 1612.2,0 3176.3,-315.9 4649.1,-938.8 707.8,-299.4 1390.5,-669.9 2029,-1101.3 632.3,-427.2 1226.9,-917.8 1767.3,-1458.1 540.3,-540.4 1030.9,-1135 1458.1,-1767.3 431.4,-638.5 801.9,-1321.2 1101.3,-2029 622.9,-1472.8 938.8,-3037 938.8,-4649.1 0,-1612.2 -315.9,-3176.4 -938.8,-4649.1 -299.4,-707.8 -669.9,-1390.5 -1101.3,-2029 -427.2,-632.3 -917.8,-1226.9 -1458.1,-1767.3 -540.4,-540.3 -1135,-1030.9 -1767.3,-1458.1 -638.5,-431.4 -1321.2,-801.9 -2029,-1101.3 -1472.8,-622.9 -3036.9,-938.8 -4649.1,-938.8"
         style="fill:#201600;fill-opacity:1;fill-rule:nonzero;stroke:none"
         id="path16" />
      <path
         d="m 25000,7412.2 c -271,0 -490.6,219.7 -490.6,490.7 v 34378.2 c 0,270.9 219.6,490.6 490.6,490.6 271,0 490.6,-219.7 490.6,-490.6 V 7902.9 c 0,-271 -219.6,-490.7 -490.6,-490.7"
         style="fill:#201600;fill-opacity:1;fill-rule:nonzero;stroke:none"
         id="path18" />
    </g>
  </g>
</svg>
