<?xml version="1.0" encoding="iso-8859-1"?>
<!-- Generator: Adobe Illustrator 19.0.0, SVG Export Plug-In . SVG Version: 6.00 Build 0)  -->
<svg version="1.1" id="Capa_1" xmlns="http://www.w3.org/2000/svg" xmlns:xlink="http://www.w3.org/1999/xlink" x="0px" y="0px"
	 viewBox="0 0 55.625 55.625" style="enable-background:new 0 0 55.625 55.625;" xml:space="preserve">
<g>
	<g>
		<path d="M47.822,23.977c-0.002-0.109-0.023-0.219-0.062-0.323l-8.5-23C39.116,0.261,38.741,0,38.323,0s-0.793,0.261-0.938,0.653
			l-5.292,14.317c-2.813-0.445-5.742-0.443-8.552-0.002L18.25,0.653C18.105,0.261,17.731,0,17.313,0s-0.793,0.261-0.938,0.653
			l-8.5,23c-0.037,0.101-0.058,0.205-0.062,0.31c-2.62,3.396-4.001,7.304-4.001,11.35c0,11.2,10.767,20.313,24,20.313
			s24-9.112,24-20.313C51.813,31.272,50.436,27.369,47.822,23.977z M27.813,53.625c-12.131,0-22-8.215-22-18.313
			c0-3.815,1.391-7.506,4.021-10.674c0.228-0.274,0.291-0.647,0.171-0.979l7.308-19.775l4.641,12.559
			c0.169,0.459,0.644,0.727,1.125,0.636c3.092-0.589,6.377-0.591,9.477,0.002c0.478,0.09,0.956-0.177,1.125-0.636l4.642-12.561
			l7.303,19.761c-0.127,0.335-0.065,0.715,0.166,0.993c2.63,3.169,4.021,6.859,4.021,10.674
			C49.813,45.41,39.943,53.625,27.813,53.625z"/>
		<circle cx="18.823" cy="27.636" r="2"/>
		<circle cx="36.823" cy="27.636" r="2"/>
		<path d="M36.823,39.636c0,2.206-1.794,4-4,4c-2.138,0-3.875-1.69-3.98-3.803l2.875-5.749c0.155-0.31,0.138-0.678-0.044-0.973
			s-0.504-0.475-0.851-0.475h-6c-0.347,0-0.669,0.18-0.851,0.475s-0.199,0.663-0.044,0.973l2.875,5.749
			c-0.105,2.113-1.842,3.803-3.98,3.803c-2.206,0-4-1.794-4-4v-1h-2v1c0,3.309,2.691,6,6,6c2.086,0,3.924-1.071,5-2.69
			c1.076,1.62,2.914,2.69,5,2.69c3.309,0,6-2.691,6-6v-1h-2V39.636z M29.205,34.636l-1.382,2.764l-1.382-2.764H29.205z"/>
	</g>
</g>
<g>
</g>
<g>
</g>
<g>
</g>
<g>
</g>
<g>
</g>
<g>
</g>
<g>
</g>
<g>
</g>
<g>
</g>
<g>
</g>
<g>
</g>
<g>
</g>
<g>
</g>
<g>
</g>
<g>
</g>
</svg>
